{"title":"Zoolander-720p MP4 AAC x264 BRRip 2001-CC","uid":7498335,"size":2008475669,"categoryP":"video","categoryS":"hd___movies","magnet":"?xt=urn:btih:992bbd1345c1722792bbc9e27d05f27d0f43325a&amp;dn=Zoolander-720p+MP4+AAC+x264+BRRip+2001-CC&amp;tr=udp%3A%2F%2Ftracker.openbittorrent.com%3A80&amp;tr=udp%3A%2F%2Fopen.demonii.com%3A1337&amp;tr=udp%3A%2F%2Ftracker.coppersurfer.tk%3A6969&amp;tr=udp%3A%2F%2Fexodus.desync.com%3A6969","seeders":1,"leechers":2,"uploader":"Caveman44","files":-1,"time":1343944276,"description":" &lt;a href=&quot;http://www.imdb.com/title/tt0196229&quot; rel=&quot;nofollow&quot; target=&quot;_NEW&quot;&gt;http://www.imdb.com/title/tt0196229&lt;/a&gt;\n\nSource: Zoolander.2001.720p.BluRay.x264-SiNNERS \n\nSubs: Arabic, Danish, Dutch, English, Finnish, Greek, Hebrew, Norwegian, Romanian, Slovenian, Spanish, Swedish and Vietnamese.\n\nSample and Screens included.\n\nGeneral\nComplete name                    : Zoolander-720p MP4 AAC x264 BRRip 2001-CC.mp4\nFormat                           : MPEG-4\nFormat profile                   : Base Media\nCodec ID                         : isom\nFile size                        : 1.85 GiB\nDuration                         : 1h 29mn\nOverall bit rate                 : 2 966 Kbps\nEncoded date                     : UTC 2012-07-18 13:32:45\n\nVideo\nID                               : 1\nFormat                           : AVC\nFormat/Info                      : Advanced Video Codec\nFormat profile                   : &lt;a class=&quot;__cf_email__&quot; href=&quot;/cdn-cgi/l/email-protection&quot; data-cfemail=&quot;fcb4959b94bcb0cfd2cd&quot;&gt;[email&amp;#160;protected]&lt;/a&gt;&lt;script cf-hash='f9e31' type=&quot;text/javascript&quot;&gt;\n/* &lt;![CDATA[ */!function(){try{var t=&quot;currentScript&quot;in document?document.currentScript:function(){for(var t=document.getElementsByTagName(&quot;script&quot;),e=t.length;e--;)if(t[e].getAttribute(&quot;cf-hash&quot;))return t[e]}();if(t&amp;&amp;t.previousSibling){var e,r,n,i,c=t.previousSibling,a=c.getAttribute(&quot;data-cfemail&quot;);if(a){for(e=&quot;&quot;,r=parseInt(a.substr(0,2),16),n=2;a.length-n;n+=2)i=parseInt(a.substr(n,2),16)^r,e+=String.fromCharCode(i);e=document.createTextNode(e),c.parentNode.replaceChild(e,c)}}}catch(u){}}();/* ]]&gt; */&lt;/script&gt;\nFormat settings, CABAC           : Yes\nFormat settings, ReFrames        : 5 frames\nCodec ID                         : avc1\nCodec ID/Info                    : Advanced Video Coding\nDuration                         : 1h 29mn\nBit rate mode                    : Variable\nBit rate                         : 2 578 Kbps\nNominal bit rate                 : 2 652 Kbps\nMaximum bit rate                 : 12.7 Mbps\nWidth                            : 1 280 pixels\nHeight                           : 544 pixels\nDisplay aspect ratio             : 2.35:1\nFrame rate mode                  : Variable\nFrame rate                       : 23.976 fps\nMinimum frame rate               : 19.048 fps\nMaximum frame rate               : 24.390 fps\nResolution                       : 24 bits\nColorimetry                      : 4:2:0\nScan type                        : Progressive\nBits/(Pixel*Frame)               : 0.154\nStream size                      : 1.61 GiB (87%)\nWriting library                  : x264 core 112\n\nAudio\nID                               : 2\nFormat                           : AAC\nFormat/Info                      : Advanced Audio Codec\nFormat version                   : Version 4\nFormat profile                   : LC\nFormat settings, SBR             : No\nCodec ID                         : 40\nDuration                         : 1h 29mn\nBit rate mode                    : Variable\nBit rate                         : 384 Kbps\nMaximum bit rate                 : 720 Kbps\nChannel(s)                       : 6 channels\nChannel positions                : Front: L C R, Rear: L R, LFE\nSampling rate                    : 48.0 KHz\nResolution                       : 16 bits\nStream size                      : 245 MiB (13%)\nLanguage                         : English\n\nEnjoy...\n\nRequested by Alorati.\n\nComing soon: Big Fish, Se7en, Snatch and more.","torrent":{"xt":"urn:btih:992bbd1345c1722792bbc9e27d05f27d0f43325a","amp;dn":"Zoolander-720p+MP4+AAC+x264+BRRip+2001-CC","amp;tr":["udp%3A%2F%2Ftracker.openbittorrent.com%3A80","udp%3A%2F%2Fopen.demonii.com%3A1337","udp%3A%2F%2Ftracker.coppersurfer.tk%3A6969","udp%3A%2F%2Fexodus.desync.com%3A6969"],"infoHash":"992bbd1345c1722792bbc9e27d05f27d0f43325a","infoHashBuffer":{"type":"Buffer","data":[153,43,189,19,69,193,114,39,146,187,201,226,125,5,242,125,15,67,50,90]},"announce":[],"urlList":[]}}